<svg xmlns="http://www.w3.org/2000/svg" width="478.155" height="481.69" viewBox="0 0 478.155 481.69">
  <g id="home_Mesa_de_trabajo_1" data-name="home_Mesa de trabajo 1" transform="translate(-161.942 -58.36)">
    <g id="Capa_2" data-name="Capa 2">
      <path id="Trazado_36" data-name="Trazado 36" d="M627.51,281.75l-92.77-93.41L418.18,71a24.19,24.19,0,0,0-34.32,0L267.31,188.34l-92.78,93.41C159.38,297,170.19,323,191.69,323h0a24.19,24.19,0,0,1,24.19,24.18V510.37a24.19,24.19,0,0,0,24.18,24.18h88.57a24.19,24.19,0,0,0,24.18-24.18V394.73a20.89,20.89,0,0,1,20.89-20.89h54.64a20.89,20.89,0,0,1,20.9,20.89V510.37a24.18,24.18,0,0,0,24.18,24.18H562a24.18,24.18,0,0,0,24.18-24.18V347.16A24.19,24.19,0,0,1,610.35,323h0C631.85,323,642.66,297,627.51,281.75ZM401,247.84a41.143,41.143,0,1,0-.007,0Z" fill="none" stroke="#fff" stroke-miterlimit="10" stroke-width="11"/>
    </g>
  </g>
</svg>
