<svg id="linkedin" xmlns="http://www.w3.org/2000/svg" width="46.606" height="49.475" viewBox="0 0 46.606 49.475">
  <ellipse id="Elipse_9" data-name="Elipse 9" cx="23.303" cy="24.737" rx="23.303" ry="24.737" transform="translate(0 0)" fill="#fff"/>
  <g id="Grupo_10431" data-name="Grupo 10431" transform="translate(11.244 11.269)">
    <path id="Trazado_68" data-name="Trazado 68" d="M53.051,39.19V48.8h-5.57V39.834c0-2.251-.8-3.788-2.821-3.788A3.047,3.047,0,0,0,41.8,38.083a3.812,3.812,0,0,0-.184,1.358V48.8H36.047s.075-15.181,0-16.753h5.571v2.374c-.011.019-.027.037-.037.055h.037v-.055a5.531,5.531,0,0,1,5.02-2.767c3.665,0,6.412,2.394,6.412,7.539ZM30.22,23.969a2.9,2.9,0,1,0-.073,5.789h.036a2.9,2.9,0,1,0,.037-5.789ZM27.4,48.8h5.568V32.044H27.4Z" transform="translate(-27.068 -23.969)" fill="#748187"/>
  </g>
</svg>
