<svg xmlns="http://www.w3.org/2000/svg" width="485.237" height="489.58" viewBox="0 0 485.237 489.58">
  <g id="mapa_Mesa_de_trabajo_1" data-name="mapa_Mesa de trabajo 1" transform="translate(-105.91 -34.47)">
    <g id="Capa_2" data-name="Capa 2" transform="translate(111.41 34.47)">
      <path id="Trazado_37" data-name="Trazado 37" d="M285.237,498.915,111.41,445.135V100.62l173.827,50.019Z" transform="translate(-111.41 -14.835)" fill="none" stroke="#fff" stroke-linejoin="round" stroke-width="11"/>
      <path id="Trazado_38" data-name="Trazado 38" d="M516.887,467.095,343.06,413.315V68.8l173.827,50.019Z" transform="translate(-42.65 -24.28)" fill="none" stroke="#fff" stroke-linejoin="round" stroke-width="11"/>
      <path id="Trazado_39" data-name="Trazado 39" d="M372.033,409.568,245.45,508.36v-351.4L372.033,68.8Z" transform="translate(-71.623 -24.28)" fill="none" stroke="#fff" stroke-linejoin="round" stroke-width="11"/>
      <path id="Trazado_40" data-name="Trazado 40" d="M447.577,34.47a54.467,54.467,0,0,0-34.418,96.536l34.418,59.654,34.418-59.654A54.467,54.467,0,0,0,447.577,34.47Zm0,66.034a12.514,12.514,0,1,1,8.857-3.661A12.514,12.514,0,0,1,447.577,100.5Z" transform="translate(-27.742 -34.47)" fill="#fff"/>
      <path id="Trazado_41" data-name="Trazado 41" d="M405,188.049a242.778,242.778,0,0,0,35.546-28.439L445.733,165A251.585,251.585,0,0,1,409.1,194.326Z" transform="translate(-24.264 2.675)" fill="#fff"/>
      <path id="Trazado_42" data-name="Trazado 42" d="M365.32,205.829a247.153,247.153,0,0,0,41.213-19.349l3.8,6.484a252.88,252.88,0,0,1-42.458,19.945Z" transform="translate(-36.042 10.651)" fill="#fff"/>
      <path id="Trazado_43" data-name="Trazado 43" d="M306.13,225.436a121.5,121.5,0,0,1,65.438-21l.182,7.509a114.03,114.03,0,0,0-61.379,19.673Z" transform="translate(-53.612 15.982)" fill="#fff"/>
      <path id="Trazado_44" data-name="Trazado 44" d="M268.36,289.006a125.934,125.934,0,0,1,13.111-32.122,120.023,120.023,0,0,1,21.476-27.233l5.187,5.447a112.6,112.6,0,0,0-20.14,25.586,115.751,115.751,0,0,0-7.21,14.68,113.512,113.512,0,0,0-5.11,15.458Z" transform="translate(-64.823 23.465)" fill="#fff"/>
      <path id="Trazado_45" data-name="Trazado 45" d="M227.47,312.09l1.829-.3c.61-.117,1.206-.3,1.8-.441l3.592-.908c1.206-.272,2.347-.778,3.527-1.141a23.754,23.754,0,0,0,3.5-1.3c2.269-1,4.591-1.88,6.757-3.073,1.1-.6,2.243-1.089,3.294-1.751l3.2-1.906a92.979,92.979,0,0,0,11.892-9,81.143,81.143,0,0,0,10.089-10.854l6.017,4.487a93.567,93.567,0,0,1-24,21.722l-3.488,2.075c-1.154.713-2.4,1.3-3.592,1.906-2.386,1.3-4.928,2.3-7.418,3.372-1.3.545-2.594.908-3.89,1.375s-2.594.934-3.891,1.3l-3.89,1c-.661.156-1.3.363-1.984.48l-2.01.337Z" transform="translate(-76.96 38.832)" fill="#fff"/>
      <path id="Trazado_46" data-name="Trazado 46" d="M175.424,288.21c14.135,13.8,33.588,22.552,53.351,23.058l-.207,7.5a38.75,38.75,0,0,1-4.072-.22c-1.362-.13-2.71-.207-4.059-.376-2.684-.467-5.395-.752-8.027-1.465a82.5,82.5,0,0,1-15.432-5.109,89.649,89.649,0,0,1-26.857-18.065Z" transform="translate(-93.983 40.847)" fill="#fff"/>
      <path id="Trazado_47" data-name="Trazado 47" d="M152.671,250.2a86.135,86.135,0,0,0,17.014,34.586l-5.836,4.72A93.632,93.632,0,0,1,145.37,251.9Z" transform="translate(-101.33 29.565)" fill="#fff"/>
      <path id="Trazado_48" data-name="Trazado 48" d="M155.835,213.341a88.4,88.4,0,0,0-4.383,38.347l-7.457.817a95.862,95.862,0,0,1,4.746-41.615Z" transform="translate(-101.9 17.896)" fill="#fff"/>
    </g>
  </g>
</svg>
