<svg xmlns="http://www.w3.org/2000/svg" width="360.252" height="461.254" viewBox="0 0 360.252 461.254">
  <g id="telefono_Mesa_de_trabajo_1" data-name="telefono_Mesa de trabajo 1" transform="translate(-14.331 -17.009)">
    <path id="Trazado_49" data-name="Trazado 49" d="M249.825,53.257,307.976,404.1a4.539,4.539,0,0,1-3.483,5.34L101.145,443.168a4.551,4.551,0,0,1-5.062-3.924L37.027,82.919c-1.161-6.826,3.076-13.211,9.4-14.256l11.493-1.916a4.226,4.226,0,0,1,2.67.464,17.658,17.658,0,0,1,8.835,12.77h0C71.4,91.928,81.989,100.124,93.065,98.29L206.012,79.564c8.707-1.44,14.512-10.228,12.956-19.62L218.2,55.3a17.611,17.611,0,0,1,4.261-14.895,4.156,4.156,0,0,1,2.322-1.3l5.491-.906C239.47,36.668,248.188,43.413,249.825,53.257Z" transform="translate(2.813 2.571)" fill="none" stroke="#fff" stroke-miterlimit="10" stroke-width="10"/>
    <path id="Trazado_50" data-name="Trazado 50" d="M247.042,22.114a24.774,24.774,0,0,0-6.269.221L41.174,55.422A24.379,24.379,0,0,0,35.2,57.233C24.236,62.109,17.573,74.647,19.778,87.916L79.6,449.047c2.577,15.556,16.358,26.225,30.765,23.846l199.6-33.087c14.419-2.392,24.008-16.938,21.431-32.506L271.538,46.181C269.332,32.888,258.988,23.159,247.042,22.114Z" transform="translate(0 0)" fill="none" stroke="#fff" stroke-miterlimit="10" stroke-width="10"/>
    <rect id="Rectángulo_11" data-name="Rectángulo 11" width="87.314" height="6.582" rx="2.84" transform="translate(85.57 74.353) rotate(-9.41)" fill="#fff"/>
    <circle id="Elipse_1" data-name="Elipse 1" cx="2.902" cy="2.902" r="2.902" transform="translate(183.319 57.72)" fill="#fff"/>
    <path id="Trazado_51" data-name="Trazado 51" d="M260.58,57.77a89.717,89.717,0,0,1,32.8,122.559" transform="translate(38.82 5.755)" fill="none" stroke="#fff" stroke-miterlimit="10" stroke-width="9"/>
    <path id="Trazado_52" data-name="Trazado 52" d="M260.58,22.38a141.367,141.367,0,0,1,51.685,193.109" transform="translate(38.82 0.06)" fill="none" stroke="#fff" stroke-miterlimit="10" stroke-width="9"/>
  </g>
</svg>
