<svg id="twitter" xmlns="http://www.w3.org/2000/svg" width="46.606" height="49.475" viewBox="0 0 46.606 49.475">
  <ellipse id="Elipse_10" data-name="Elipse 10" cx="23.303" cy="24.737" rx="23.303" ry="24.737" transform="translate(0 0)" fill="#fff"/>
  <g id="Grupo_10432" data-name="Grupo 10432" transform="translate(10.427 15.787)">
    <path id="Trazado_69" data-name="Trazado 69" d="M52.253,36.64a11.113,11.113,0,0,1-3.2.876,5.585,5.585,0,0,0,2.45-3.081,11.151,11.151,0,0,1-3.537,1.351,5.575,5.575,0,0,0-9.492,5.081,15.812,15.812,0,0,1-11.481-5.821,5.576,5.576,0,0,0,1.724,7.437,5.531,5.531,0,0,1-2.523-.7c0,.024,0,.047,0,.071a5.573,5.573,0,0,0,4.468,5.461,5.592,5.592,0,0,1-2.515.1,5.576,5.576,0,0,0,5.2,3.868A11.244,11.244,0,0,1,25.1,53.589,15.841,15.841,0,0,0,49.489,40.243c0-.241-.005-.482-.016-.72a11.3,11.3,0,0,0,2.78-2.883Z" transform="translate(-25.103 -34.028)" fill="#748187"/>
  </g>
</svg>
