<svg xmlns="http://www.w3.org/2000/svg" width="235.934" height="511.963" viewBox="0 0 235.934 511.963">
  <g id="_1" data-name="1" transform="translate(-139.733 -43.3)">
    <path id="Trazado_669" data-name="Trazado 669" d="M320,402.1V69.6a21.361,21.361,0,0,0-21.2-21.3H216.7a21.317,21.317,0,0,0-21.3,21.3V402.1H149.7l54,72.4,54,72.4,54-72.4,54-72.4H320Z" fill="none" stroke="#040404" stroke-miterlimit="10" stroke-width="10"/>
    <path id="Trazado_670" data-name="Trazado 670" d="M231.4,392.4a19.366,19.366,0,0,1-5.7-14.4V345.1h-8.6v29.1C217,381.8,221.8,387.9,231.4,392.4ZM307,372.2c0,8-4.1,14.9-12.5,20.6s-18.9,9-31.8,9.8V421H252.5V402.9c-12.8-.9-23.4-4.2-31.7-10s-12.5-12.7-12.4-20.7V339.7h34.3v45.7c0,8,5,12,15.1,12s15-4,14.8-12V350.3A38.16,38.16,0,0,0,262.5,324l-42.9-46.9a39.358,39.358,0,0,1-11.1-27V222.9c0-7.9,4.1-14.8,12.4-20.6s18.9-9.1,31.7-9.9V174.2h10.2v18.2c12.8.8,23.4,4.1,31.7,9.9s12.4,12.6,12.4,20.6v32.5H272.6V209.7c0-8-4.9-12-14.8-12s-14.9,4-15.1,12v33.8A37.654,37.654,0,0,0,253,269.7l42.9,46.9A39.389,39.389,0,0,1,307,343.8Zm-17.2,4.9V347a37.822,37.822,0,0,0-10.7-26.7l-42.9-46.7a38.673,38.673,0,0,1-10.7-26.8V217.2a19.62,19.62,0,0,1,5.8-14.3c-9.5,4.5-14.2,10.5-14.2,18.1v27.4a38.485,38.485,0,0,0,10.5,26.8l42.9,46.6a38.231,38.231,0,0,1,10.7,26.8v32.9c-.1,6.4.9,2.8-6.7,14.8,10.3-4.9,15.3-11.2,15.3-19.2Zm-1.9-127a1.9,1.9,0,0,0,1.9-1.9h0v-30c0-7.3-4.1-14.5-12.2-18.8-.5-.3-6.3-2-5.9-1.6,2.8,3.4,9.8,11.6,9.5,16.3v34.1a1.9,1.9,0,0,0,1.9,1.9h4.8Z" fill="#211915"/>
  </g>
</svg>
