<?xml version="1.0" encoding="utf-8"?>
<!-- Generator: Adobe Illustrator 23.0.0, SVG Export Plug-In . SVG Version: 6.00 Build 0)  -->
<svg version="1.1" id="Capa_1" xmlns="http://www.w3.org/2000/svg" xmlns:xlink="http://www.w3.org/1999/xlink" x="0px" y="0px"
	 viewBox="0 0 602.9 358.4" style="enable-background:new 0 0 602.9 358.4;" xml:space="preserve">
<style type="text/css">
	.st0{fill:#FFFFFF;}
</style>
<title>mejora</title>
<g>
	<path class="st0" d="M128.4,264.5c-3.6,13.5-5.5,27.4-5.7,41.4c0,1.3-1.1,2.3-2.3,2.3H89.8l-60.6-2.9c-1.3-0.1-2.3-1.1-2.3-2.4
		c0.4-23.4,4-46.6,10.6-69.1c0.4-1.2,1.7-2,2.9-1.6c0,0,0.1,0,0.1,0l86.3,29.5C128,262,128.7,263.2,128.4,264.5z"/>
	<path class="st0" d="M174.3,186.5c-11.6,11.2-21.6,24-29.6,38.1c-0.6,1.1-2.1,1.5-3.2,0.9c0,0,0,0-0.1,0l-78-47.2
		c-1.1-0.7-1.5-2.1-0.8-3.2c12.7-21.7,28.3-41.5,46.5-58.9c0.9-0.9,2.4-0.9,3.3,0.1c0,0,0,0,0,0l61.8,66.9
		C175.3,184.1,175.3,185.6,174.3,186.5z"/>
	<path class="st0" d="M247.3,145c-14.3,3.9-28.1,9.7-40.9,17.2c-1.1,0.7-2.6,0.3-3.2-0.8c0,0,0,0,0,0l-45.4-79
		c-0.6-1.1-0.3-2.6,0.9-3.2c20.6-12,42.7-21.1,65.7-27.1c1.3-0.3,2.5,0.4,2.9,1.7c0,0,0,0,0,0l21.8,88.4
		C249.3,143.4,248.6,144.7,247.3,145C247.3,145,247.3,145,247.3,145z"/>
	<path class="st0" d="M365.5,56.2l-26.2,87.3c-0.4,1.2-1.6,1.9-2.9,1.6c-14.6-4-29.6-6-44.7-6h-1c-1.3,0-2.4-1-2.4-2.3c0,0,0,0,0,0
		l1-91.1c0-1.3,1.1-2.3,2.4-2.3l0,0c24.4,0,48.6,3.3,72.1,9.9C365.1,53.5,365.8,54.8,365.5,56.2C365.5,56.1,365.5,56.2,365.5,56.2z"
		/>
	<path class="st0" d="M306.6,248.3l-149.2-95l118.8,131c1.7,2.4,3.6,4.6,5.9,6.5c12,10.1,28.9,9.9,37.7-0.5s6.2-27.1-5.8-37.3
		C311.8,251.1,309.3,249.5,306.6,248.3z"/>
	<path class="st0" d="M482.3,127.8L414,188.2c-0.9,0.8-2.3,0.8-3.2-0.1C399.6,177,387,167.6,373.2,160c-1.1-0.6-1.6-2-1-3.2
		c0-0.1,0.1-0.1,0.1-0.2l48.9-77c0.7-1.1,2.1-1.4,3.2-0.8c21.4,12.4,40.9,27.7,58,45.5C483.3,125.3,483.3,126.8,482.3,127.8
		C482.3,127.8,482.3,127.8,482.3,127.8z"/>
	<path class="st0" d="M548.5,253.4l-88.9,20.1c-1.3,0.3-2.5-0.5-2.8-1.8c0,0,0,0,0,0c-3.5-15.7-9.2-30.9-17-45
		c-0.6-1.1-0.2-2.6,0.9-3.2c0,0,0,0,0,0l79.8-43.9c1.1-0.6,2.6-0.2,3.2,0.9c0,0,0,0,0,0c12.1,22,21.1,45.6,26.5,70.1
		C550.6,251.9,549.8,253.1,548.5,253.4z"/>
</g>
</svg>
