<?xml version="1.0" encoding="utf-8"?>
<!-- Generator: Adobe Illustrator 23.0.0, SVG Export Plug-In . SVG Version: 6.00 Build 0)  -->
<svg version="1.1" id="Capa_1" xmlns="http://www.w3.org/2000/svg" xmlns:xlink="http://www.w3.org/1999/xlink" x="0px" y="0px"
	 viewBox="0 0 245.4 343.6" style="enable-background:new 0 0 245.4 343.6;" xml:space="preserve">
<style type="text/css">
	.st0{fill:#FFFFFF;}
</style>
<title>incr.habilidades</title>
<g>
	<path class="st0" d="M151.2,277v25.7H126v-57.5C140.2,247.3,151.2,260.8,151.2,277z"/>
	<path class="st0" d="M216.5,113.7h-23V180c-0.1,0-0.2,0-0.3,0l-48.2-7.1c-2.4-0.3-4.5-1.8-5.5-4l-13.2-27v-28.2h-23l56.6-98
		L216.5,113.7z"/>
	<path class="st0" d="M192.9,215v77.8h-22.6c0.7-1.2,0.9-2.7,0.7-4.1l-7.1-41.8c-0.4-2.1,0.3-4.2,1.9-5.7L192.9,215z"/>
	<path class="st0" d="M162.6,238.1c-1.9,1.8-2.8,4.5-2.3,7.1l8.9,52.4c0.3,1.8,0,3.6-0.8,5.1H154v-28.3c0-17.7-13.2-32.7-30.7-35
		v-7.6c12.3-9,15-26.3,5.9-38.6c-1.7-2.3-3.7-4.3-5.9-5.9v-41.5l14.4,29.4c1.1,2.4,3.4,4,6,4.4l52.5,7.8h0.3v17.7L162.6,238.1z"/>
	<path class="st0" d="M196.6,187.5h-0.3l-52.5-7.8c-2.6-0.4-4.9-2-6-4.4l-14.4-29.4l-9-18.2c-1.9-4-6.7-5.7-10.7-3.7
		c-1.6,0.8-3,2.1-3.7,3.7l-23.6,47.5c-1.2,2.4-3.4,4-6.1,4.4L17.6,187c-4.4,0.6-7.5,4.6-6.9,9c0.2,1.8,1.1,3.5,2.4,4.7l37.9,37.2
		c1.9,1.9,2.7,4.5,2.3,7.1l-9.1,52.3c-0.8,4.3,2.1,8.5,6.4,9.3c1.8,0.3,3.6,0,5.2-0.8l4.3-2.3l-0.3-0.1l-0.1-0.5v-28.6
		c0-19.5,15.8-35.4,35.4-35.4h23.4c19.5,0,35.3,15.8,35.4,35.3c0,0,0,0.1,0,0.1V303h-0.2l-1.1,0.5l4.7,2.5c3.9,2.1,8.7,0.6,10.8-3.3
		c0,0,0,0,0-0.1c0.8-1.6,1.1-3.4,0.8-5.1l-8.9-52.4c-0.4-2.6,0.4-5.3,2.3-7.1l34-32.9l4.1-4c3.2-3,3.3-8.1,0.3-11.3
		C199.8,188.6,198.3,187.8,196.6,187.5z M123.3,231.8c-12.3,9-29.6,6.4-38.6-5.9s-6.4-29.6,5.9-38.6c12.3-9,29.6-6.4,38.6,5.9
		c3.5,4.7,5.3,10.4,5.3,16.3C134.6,218.3,130.4,226.6,123.3,231.8z"/>
	<path class="st0" d="M131.1,209.5c0,5.2-2.5,10.2-6.7,13.3v-26.6C128.6,199.4,131.1,204.3,131.1,209.5z"/>
</g>
</svg>
