<svg xmlns="http://www.w3.org/2000/svg" width="354.257" height="369.268" viewBox="0 0 354.257 369.268">
  <g id="_5" data-name="5" transform="translate(-36.269 -16.364)">
    <g id="Capa_2">
      <g id="Grupo_120" data-name="Grupo 120">
        <path id="Trazado_671" data-name="Trazado 671" d="M354.7,241.3A133.8,133.8,0,1,0,152.5,234L39.5,355.5a12.022,12.022,0,0,0,.6,17h0l10.7,9.9a12.022,12.022,0,0,0,17-.6h0l113-121.5A133.783,133.783,0,0,0,354.7,241.3Zm-175.5-7.8a113.918,113.918,0,1,1,161-5.8h0a113.847,113.847,0,0,1-161,5.8Z" fill="#211915"/>
      </g>
      <g id="Grupo_123" data-name="Grupo 123">
        <g id="Grupo_121" data-name="Grupo 121">
          <rect id="Rectángulo_6" data-name="Rectángulo 6" width="66.4" height="115.6" transform="translate(194.9 91.4)" fill="none" stroke="#000" stroke-miterlimit="10" stroke-width="6"/>
          <rect id="Rectángulo_7" data-name="Rectángulo 7" width="13.6" height="10.1" transform="translate(199.9 97.4)" fill="#211915"/>
          <rect id="Rectángulo_8" data-name="Rectángulo 8" width="13.6" height="10.1" transform="translate(221.3 97.4)" fill="#211915"/>
          <rect id="Rectángulo_9" data-name="Rectángulo 9" width="13.6" height="10.1" transform="translate(243 97.4)" fill="#211915"/>
          <rect id="Rectángulo_10" data-name="Rectángulo 10" width="13.6" height="10.1" transform="translate(199.8 110.8)" fill="#211915"/>
          <rect id="Rectángulo_11" data-name="Rectángulo 11" width="13.6" height="10.1" transform="translate(221.1 110.8)" fill="#211915"/>
          <rect id="Rectángulo_12" data-name="Rectángulo 12" width="13.6" height="10.1" transform="translate(242.8 110.8)" fill="#211915"/>
          <rect id="Rectángulo_13" data-name="Rectángulo 13" width="13.6" height="10.1" transform="translate(199.9 124.2)" fill="#211915"/>
          <rect id="Rectángulo_14" data-name="Rectángulo 14" width="13.6" height="10.1" transform="translate(221.3 124.2)" fill="#211915"/>
          <rect id="Rectángulo_15" data-name="Rectángulo 15" width="13.6" height="10.1" transform="translate(243 124.2)" fill="#211915"/>
          <rect id="Rectángulo_16" data-name="Rectángulo 16" width="13.6" height="10.1" transform="translate(199.8 137.6)" fill="#211915"/>
          <rect id="Rectángulo_17" data-name="Rectángulo 17" width="13.6" height="10.1" transform="translate(221.1 137.6)" fill="#211915"/>
          <rect id="Rectángulo_18" data-name="Rectángulo 18" width="13.6" height="10.1" transform="translate(242.8 137.6)" fill="#211915"/>
          <rect id="Rectángulo_19" data-name="Rectángulo 19" width="13.6" height="10.1" transform="translate(199.9 151.1)" fill="#211915"/>
          <rect id="Rectángulo_20" data-name="Rectángulo 20" width="13.6" height="10.1" transform="translate(221.3 151.1)" fill="#211915"/>
          <rect id="Rectángulo_21" data-name="Rectángulo 21" width="13.6" height="10.1" transform="translate(243 151.1)" fill="#211915"/>
          <rect id="Rectángulo_22" data-name="Rectángulo 22" width="13.6" height="10.1" transform="translate(199.8 164.5)" fill="#211915"/>
          <rect id="Rectángulo_23" data-name="Rectángulo 23" width="13.6" height="10.1" transform="translate(221.1 164.5)" fill="#211915"/>
          <rect id="Rectángulo_24" data-name="Rectángulo 24" width="13.6" height="10.1" transform="translate(242.8 164.5)" fill="#211915"/>
          <rect id="Rectángulo_25" data-name="Rectángulo 25" width="13.6" height="10.1" transform="translate(199.9 177.9)" fill="#211915"/>
          <rect id="Rectángulo_26" data-name="Rectángulo 26" width="13.6" height="10.1" transform="translate(221.3 177.9)" fill="#211915"/>
          <rect id="Rectángulo_27" data-name="Rectángulo 27" width="13.6" height="10.1" transform="translate(243 177.9)" fill="#211915"/>
        </g>
        <g id="Grupo_122" data-name="Grupo 122">
          <rect id="Rectángulo_28" data-name="Rectángulo 28" width="66.4" height="71.1" transform="translate(270.3 135.9)" fill="none" stroke="#000" stroke-miterlimit="10" stroke-width="6"/>
          <rect id="Rectángulo_29" data-name="Rectángulo 29" width="13.6" height="10.1" transform="translate(275.2 142.7)" fill="#211915"/>
          <rect id="Rectángulo_30" data-name="Rectángulo 30" width="13.6" height="10.1" transform="translate(296.5 142.7)" fill="#211915"/>
          <rect id="Rectángulo_31" data-name="Rectángulo 31" width="13.6" height="10.1" transform="translate(318.2 142.7)" fill="#211915"/>
          <rect id="Rectángulo_32" data-name="Rectángulo 32" width="13.6" height="10.1" transform="translate(275.2 156.1)" fill="#211915"/>
          <rect id="Rectángulo_33" data-name="Rectángulo 33" width="13.6" height="10.1" transform="translate(296.5 156.1)" fill="#211915"/>
          <rect id="Rectángulo_34" data-name="Rectángulo 34" width="13.6" height="10.1" transform="translate(318.2 156.1)" fill="#211915"/>
          <rect id="Rectángulo_35" data-name="Rectángulo 35" width="13.6" height="10.1" transform="translate(275.2 169.6)" fill="#211915"/>
          <rect id="Rectángulo_36" data-name="Rectángulo 36" width="13.6" height="10.1" transform="translate(296.5 169.6)" fill="#211915"/>
          <rect id="Rectángulo_37" data-name="Rectángulo 37" width="13.6" height="10.1" transform="translate(318.2 169.6)" fill="#211915"/>
        </g>
      </g>
    </g>
  </g>
</svg>
