<?xml version="1.0" encoding="utf-8"?>
<!-- Generator: Adobe Illustrator 23.0.0, SVG Export Plug-In . SVG Version: 6.00 Build 0)  -->
<svg version="1.1" xmlns="http://www.w3.org/2000/svg" xmlns:xlink="http://www.w3.org/1999/xlink" x="0px" y="0px"
	 viewBox="0 0 435.7 425.3" style="enable-background:new 0 0 435.7 425.3;" xml:space="preserve">
<style type="text/css">
	.st0{fill:#FFFFFF;}
	.st1{fill:none;stroke:#FFFFFF;stroke-width:6;stroke-miterlimit:10;}
</style>
<g id="Capa_1">
	<title>identificar2</title>
</g>
<g id="Capa_2">
	<g>
		<path class="st0" d="M354.7,241.3c50.3-54.1,47.3-138.8-6.9-189.1S209.1,4.9,158.8,59c-45.3,48.7-47.9,123.2-6.3,175l-113,121.5
			c-4.5,4.8-4.3,12.4,0.6,17c0,0,0,0,0,0l10.7,9.9c4.8,4.5,12.4,4.3,17-0.6c0,0,0,0,0,0l113-121.5
			C235.4,298,309.5,289.9,354.7,241.3z M179.2,233.5c-46.1-42.9-48.7-114.9-5.8-161s114.9-48.7,161-5.8s48.7,114.9,5.8,161
			c0,0,0,0,0,0C297.3,273.8,225.2,276.4,179.2,233.5L179.2,233.5z"/>
	</g>
	<g>
		<g>
			<rect x="194.9" y="91.4" class="st1" width="66.4" height="115.6"/>
			<rect x="199.9" y="97.4" class="st0" width="13.6" height="10.1"/>
			<rect x="221.3" y="97.4" class="st0" width="13.6" height="10.1"/>
			<rect x="243" y="97.4" class="st0" width="13.6" height="10.1"/>
			<rect x="199.8" y="110.8" class="st0" width="13.6" height="10.1"/>
			<rect x="221.1" y="110.8" class="st0" width="13.6" height="10.1"/>
			<rect x="242.8" y="110.8" class="st0" width="13.6" height="10.1"/>
			<rect x="199.9" y="124.2" class="st0" width="13.6" height="10.1"/>
			<rect x="221.3" y="124.2" class="st0" width="13.6" height="10.1"/>
			<rect x="243" y="124.2" class="st0" width="13.6" height="10.1"/>
			<rect x="199.8" y="137.6" class="st0" width="13.6" height="10.1"/>
			<rect x="221.1" y="137.6" class="st0" width="13.6" height="10.1"/>
			<rect x="242.8" y="137.6" class="st0" width="13.6" height="10.1"/>
			<rect x="199.9" y="151.1" class="st0" width="13.6" height="10.1"/>
			<rect x="221.3" y="151.1" class="st0" width="13.6" height="10.1"/>
			<rect x="243" y="151.1" class="st0" width="13.6" height="10.1"/>
			<rect x="199.8" y="164.5" class="st0" width="13.6" height="10.1"/>
			<rect x="221.1" y="164.5" class="st0" width="13.6" height="10.1"/>
			<rect x="242.8" y="164.5" class="st0" width="13.6" height="10.1"/>
			<rect x="199.9" y="177.9" class="st0" width="13.6" height="10.1"/>
			<rect x="221.3" y="177.9" class="st0" width="13.6" height="10.1"/>
			<rect x="243" y="177.9" class="st0" width="13.6" height="10.1"/>
		</g>
		<g>
			<rect x="270.3" y="135.9" class="st1" width="66.4" height="71.1"/>
			<rect x="275.2" y="142.7" class="st0" width="13.6" height="10.1"/>
			<rect x="296.5" y="142.7" class="st0" width="13.6" height="10.1"/>
			<rect x="318.2" y="142.7" class="st0" width="13.6" height="10.1"/>
			<rect x="275.2" y="156.1" class="st0" width="13.6" height="10.1"/>
			<rect x="296.5" y="156.1" class="st0" width="13.6" height="10.1"/>
			<rect x="318.2" y="156.1" class="st0" width="13.6" height="10.1"/>
			<rect x="275.2" y="169.6" class="st0" width="13.6" height="10.1"/>
			<rect x="296.5" y="169.6" class="st0" width="13.6" height="10.1"/>
			<rect x="318.2" y="169.6" class="st0" width="13.6" height="10.1"/>
		</g>
	</g>
</g>
</svg>
