<svg xmlns="http://www.w3.org/2000/svg" width="494.713" height="398.6" viewBox="0 0 494.713 398.6">
  <g id="_6" data-name="6" transform="translate(-31.2 -31.7)">
    <path id="Trazado_116" data-name="Trazado 116" d="M416.4,159.2,383.1,175a162.328,162.328,0,1,1-6.6-15.5l33.2-15.8a199.436,199.436,0,0,0-179.2-112C120.4,31.7,31.2,120.9,31.2,231s89.2,199.3,199.3,199.3S429.8,341.1,429.8,231a200.5,200.5,0,0,0-13.4-71.8Z"/>
    <path id="Trazado_117" data-name="Trazado 117" d="M357.2,187.2,328.3,201a101.99,101.99,0,1,1-6.2-15.6l28.7-13.6a133.961,133.961,0,1,0,6.4,15.4Z"/>
    <path id="Trazado_118" data-name="Trazado 118" d="M298.4,215.2l-19.6,9.3,9.6,20.3-15.5-1.3a44.176,44.176,0,1,1-30-54.8,44.755,44.755,0,0,1,14.6,7.4l4.7-6.8,9.5,20,21-10a70.08,70.08,0,1,0,5.7,15.9Z"/>
    <path id="Trazado_119" data-name="Trazado 119" d="M513,156.3a2.9,2.9,0,0,1-.1,4.2,2.178,2.178,0,0,1-.8.5l-15,7.1a3.045,3.045,0,0,1-3.4-.6l-28.1-30.4-6.8,3.1,28.6,28.2a2.987,2.987,0,0,1,.1,4.2,1.456,1.456,0,0,1-.9.6l-15,7.1a3.045,3.045,0,0,1-3.4-.6l-28.5-30.8a2.092,2.092,0,0,1-.4-.6l-23,10.9L383.1,175l-25.9,12.3L328.3,201l-29.9,14.2-19.6,9.3,9.6,20.3-15.5-1.3-45.6-3.7,30.2-43.7,4.7-6.8,9.5,20,21-10,29.5-14,28.7-13.6,25.7-12.2,33.2-15.8L432.4,133c0-.1-.1-.3-.1-.4l-5.8-41.5a2.884,2.884,0,0,1,1.7-3l15-7.1a3.038,3.038,0,0,1,4,1.5,2.921,2.921,0,0,1,.2.9l3.8,40.8L458,121c0-.2-.1-.3-.1-.4L451.8,79a2.957,2.957,0,0,1,1.7-3.1l15-7.1a3.038,3.038,0,0,1,4,1.5,2.919,2.919,0,0,1,.2.9l3.8,40.9.4.8,38.5-17.4,7.2,15.8-37.7,17.1Z" stroke="#000" stroke-miterlimit="10" stroke-width="5"/>
  </g>
</svg>
