<?xml version="1.0" encoding="utf-8"?>
<!-- Generator: Adobe Illustrator 23.0.0, SVG Export Plug-In . SVG Version: 6.00 Build 0)  -->
<svg version="1.1" id="Capa_1" xmlns="http://www.w3.org/2000/svg" xmlns:xlink="http://www.w3.org/1999/xlink" x="0px" y="0px"
	 viewBox="0 0 540 454.5" style="enable-background:new 0 0 540 454.5;" xml:space="preserve">
<style type="text/css">
	.st0{fill:#FFFFFF;}
</style>
<title>acce.finanzamiento</title>
<g>
	<path class="st0" d="M474.4,62H58.8c-13.3,0-24.1,10.8-24.1,24.1c0,0,0,0,0,0v263.3c0,9.2,7.5,16.7,16.7,16.7h13.5
		c9.2,0,16.7-7.5,16.7-16.7V333h370v16.4c0,9.2,7.5,16.7,16.7,16.7h13.5c9.2,0,16.7-7.5,16.7-16.7V86.2
		C498.6,72.8,487.8,62,474.4,62C474.5,62,474.4,62,474.4,62z M475.4,311.8H57.9V83.3h417.5L475.4,311.8z"/>
</g>
<g id="Capa_3">
	<path class="st0" d="M85.4,298.7c-3.6,0-6.5-2.9-6.5-6.5c0-1.7,0.7-3.3,1.8-4.5l98.6-102.2c2.5-2.6,6.6-2.7,9.2-0.2
		c0.2,0.2,0.4,0.4,0.6,0.7l43,55.3l69.3-112.6c1.2-1.9,3.3-3.1,5.5-3.1h0.1c2.3,0,4.4,1.2,5.5,3.2l51,86l67.8-115.2
		c1.7-3.1,5.7-4.3,8.8-2.6c3.1,1.7,4.3,5.7,2.6,8.8c-0.1,0.1-0.1,0.2-0.2,0.3l-73.3,124.7c-1.2,2-3.3,3.2-5.6,3.2l0,0
		c-2.3,0-4.4-1.2-5.6-3.2l-51.2-86.2l-68.6,111.4c-1.9,3.1-5.9,4-8.9,2.1c-0.7-0.4-1.2-0.9-1.7-1.5l-44.2-56.8l-93.4,96.8
		C88.8,298,87.1,298.7,85.4,298.7z"/>
</g>
</svg>
