<svg xmlns="http://www.w3.org/2000/svg" width="444.24" height="434.261" viewBox="0 0 444.24 434.261">
  <g id="_8" data-name="8" transform="translate(-18.76 -13.74)">
    <path id="Trazado_122" data-name="Trazado 122" d="M319.37,406.28h0a8,8,0,0,0-10.5-4.28h0a177.45,177.45,0,0,1-114.11,7.86l7.49-2.2a8,8,0,1,0-4.5-15.36l-32,9.38c-.12,0-.2.14-.32.18a8.143,8.143,0,0,0-2.06,1.14,6,6,0,0,0-.8.51,7.8,7.8,0,0,0-2,2.72,8.1,8.1,0,0,0-.61,3.3,25.371,25.371,0,0,0,.8,3.2.515.515,0,0,0,.09.35l16,30.62a8,8,0,1,0,14.19-7.41l-6.51-12.45a192.57,192.57,0,0,0,130.55-7.1A8,8,0,0,0,319.37,406.28Z" fill="#211915"/>
    <path id="Trazado_123" data-name="Trazado 123" d="M453.66,210.34a8,8,0,0,0-11.32,0L431,221.66A191.72,191.72,0,0,0,315.14,63.26,8.011,8.011,0,0,0,308.86,78,175.74,175.74,0,0,1,414.68,219.37l-9-9a8,8,0,1,0-11.32,11.32l24,24a8,8,0,0,0,11.32,0h0l24-24a8,8,0,0,0-.02-11.35Z" fill="#211915"/>
    <path id="Trazado_124" data-name="Trazado 124" d="M175.77,69.27a7.93,7.93,0,0,0-.21-1.38c0-.07-.09-.12-.12-.2a.45.45,0,0,1,0-.2,8.31,8.31,0,0,0-.75-1.11,9.11,9.11,0,0,0-.91-1.32A8.25,8.25,0,0,0,172.22,64a6.442,6.442,0,0,0-.9-.65l-32-14.61a8,8,0,0,0-6.64,14.54l16.57,7.58A191.72,191.72,0,0,0,48,240a8,8,0,0,0,16,0A175.73,175.73,0,0,1,150.58,88.45l-5.78,12.09a8,8,0,0,0,3.74,10.66,7.84,7.84,0,0,0,3.46.8,8,8,0,0,0,7.2-4.54l16-33.38a.39.39,0,0,1,.06-.25,7.65,7.65,0,0,0,.44-1.69,9,9,0,0,0,.3-1.32,8.051,8.051,0,0,0-.23-1.55Z" fill="#211915"/>
    <path id="Trazado_125" data-name="Trazado 125" d="M414.67,339.42h-32c-26.64,0-48.32,22.39-48.32,49.9v40.43l.1.64,2.69.86c25.43,8.2,47.52,10.95,65.7,10.95,35.51,0,56.1-10.46,57.37-11.13l2.52-1.32H463V389.32C463,361.81,441.31,339.42,414.67,339.42Zm35.83,86.73h-.23l-2.19,1.22c-1.11.63-19,10.37-49.89,10.37-15.82,0-35-2.56-57.14-10.2l-2.34-.8-.09-.59V388.48c0-25.64,18.85-46.49,42-46.49h27.85c23.17,0,42,20.85,42,46.49Z" fill="#211915"/>
    <path id="Trazado_126" data-name="Trazado 126" d="M398.66,257.31c-20.84,0-37.75,17.44-37.75,39s16.91,39,37.75,39,37.73-17.45,37.73-39S419.5,257.31,398.66,257.31Zm-1.92,72.76c-18.08,0-32.74-15.13-32.74-33.8s14.66-33.8,32.74-33.8,32.74,15.13,32.74,33.8S414.82,330.07,396.74,330.07Z" fill="#211915"/>
    <path id="Trazado_127" data-name="Trazado 127" d="M99.08,345.25h-32c-26.64,0-48.32,22.38-48.32,49.9v40.43l.1.64,2.7.86C47,445.28,69.05,448,87.24,448c35.5,0,56.09-10.45,57.36-11.12l2.52-1.32h.27V395.15C147.39,367.63,125.73,345.25,99.08,345.25ZM134.91,432h-.23l-2.19,1.23c-1.11.62-19,10.36-49.89,10.36-15.81,0-35-2.55-57.14-10.19l-2.34-.81L23,432V394.3c0-25.63,18.85-46.48,42-46.48H92.9c23.17,0,42,20.85,42,46.48Z" fill="#211915"/>
    <path id="Trazado_128" data-name="Trazado 128" d="M83.07,263.13c-20.84,0-37.74,17.45-37.74,39s16.9,39,37.74,39,37.74-17.45,37.74-39S103.91,263.13,83.07,263.13ZM81.15,335.9c-18.08,0-32.74-15.14-32.74-33.8s14.66-33.8,32.74-33.8,32.74,15.13,32.74,33.8S99.23,335.9,81.15,335.9Z" fill="#211915"/>
    <path id="Trazado_129" data-name="Trazado 129" d="M256,95.86H224c-26.65,0-48.33,22.38-48.33,49.89v40.44l.11.63,2.69.87c25.43,8.2,47.52,10.94,65.7,10.94,35.51,0,56.1-10.46,57.37-11.12l2.52-1.32h.27V145.75C304.33,118.24,282.66,95.86,256,95.86Zm35.84,86.72h-.24l-2.19,1.23c-1.1.62-19,10.36-49.89,10.36-15.81,0-35-2.55-57.13-10.19l-2.35-.81-.09-.59V144.91c0-25.63,18.86-46.48,42-46.48h27.84c23.17,0,42,20.85,42,46.48Z" fill="#211915"/>
    <path id="Trazado_130" data-name="Trazado 130" d="M240,13.74c-20.84,0-37.74,17.45-37.74,39s16.9,39,37.74,39,37.74-17.45,37.74-39S260.84,13.74,240,13.74Zm-1.91,72.77c-18.08,0-32.75-15.14-32.75-33.81S220,18.9,238.09,18.9,270.82,34,270.82,52.7s-14.65,33.81-32.73,33.81Z" fill="#211915"/>
  </g>
</svg>
